<svg width="48" height="46" viewBox="0 0 48 46" fill="none" xmlns="http://www.w3.org/2000/svg">
<path d="M12.4075 41C11.6795 41 10.986 40.7525 10.327 40.2575C9.668 39.7628 9.23467 39.1577 9.027 38.442C8.19367 35.5653 7.52 33.1277 7.006 31.129C6.49167 29.13 6.08583 27.4068 5.7885 25.9595C5.49117 24.5122 5.28533 23.2493 5.171 22.171C5.057 21.093 5 20.036 5 19C5 16.2153 5.9705 13.8525 7.9115 11.9115C9.8525 9.9705 12.2153 9 15 9H25.5C26.4 7.8 27.5 6.83333 28.8 6.1C30.1 5.36667 31.5 5 33 5C33.5513 5 34.0225 5.1955 34.4135 5.5865C34.8045 5.9775 35 6.44867 35 7C35 7.136 34.9813 7.26867 34.944 7.398C34.907 7.52767 34.868 7.6565 34.827 7.7845C34.6807 8.17683 34.5397 8.60117 34.404 9.0575C34.268 9.51417 34.141 10.0937 34.023 10.796L39.227 16H41.192C41.7077 16 42.1378 16.1725 42.4825 16.5175C42.8275 16.8622 43 17.2923 43 17.808V26.904C43 27.2987 42.8878 27.6498 42.6635 27.9575C42.4392 28.2652 42.1295 28.4895 41.7345 28.6305L37.542 30.0115L35.023 38.419C34.782 39.209 34.3435 39.8367 33.7075 40.302C33.0718 40.7673 32.3488 41 31.5385 41H28.6155C27.6182 41 26.7662 40.6468 26.0595 39.9405C25.3532 39.2338 25 38.3818 25 37.3845V37H19V37.3845C19 38.3818 18.6468 39.2338 17.9405 39.9405C17.2338 40.6468 16.3818 41 15.3845 41H12.4075ZM12.5 38H15.3845C15.5642 38 15.7117 37.9423 15.827 37.827C15.9423 37.7117 16 37.5642 16 37.3845V34H28V37.3845C28 37.5642 28.0577 37.7117 28.173 37.827C28.2883 37.9423 28.4358 38 28.6155 38H31.5385C31.6795 38 31.8045 37.9615 31.9135 37.8845C32.0225 37.8075 32.0962 37.6985 32.1345 37.5575L35.1 27.7L40 26.05V19H38L31 12C31 11.3717 31.0448 10.728 31.1345 10.069C31.2242 9.41033 31.3588 8.79367 31.5385 8.219C30.6102 8.473 29.7698 8.941 29.0175 9.623C28.2648 10.305 27.709 11.0973 27.35 12H15C13.0667 12 11.4167 12.6833 10.05 14.05C8.68333 15.4167 8 17.0667 8 19C8 20.341 8.33717 22.625 9.0115 25.852C9.68583 29.079 10.6372 32.968 11.8655 37.519C11.9038 37.66 11.984 37.7755 12.106 37.8655C12.2277 37.9552 12.359 38 12.5 38ZM32 21.769C32.4897 21.769 32.907 21.5967 33.252 21.252C33.5967 20.907 33.769 20.4897 33.769 20C33.769 19.5103 33.5967 19.093 33.252 18.748C32.907 18.4033 32.4897 18.231 32 18.231C31.5103 18.231 31.093 18.4033 30.748 18.748C30.4033 19.093 30.231 19.5103 30.231 20C30.231 20.4897 30.4033 20.907 30.748 21.252C31.093 21.5967 31.5103 21.769 32 21.769ZM24.5 17.5C24.9257 17.5 25.282 17.3563 25.569 17.069C25.8563 16.782 26 16.4257 26 16C26 15.5743 25.8563 15.218 25.569 14.931C25.282 14.6437 24.9257 14.5 24.5 14.5H17.5C17.0743 14.5 16.718 14.6437 16.431 14.931C16.1437 15.218 16 15.5743 16 16C16 16.4257 16.1437 16.782 16.431 17.069C16.718 17.3563 17.0743 17.5 17.5 17.5H24.5Z" fill="#F5F5F4"/>
</svg>
