<svg width="48" height="48" viewBox="0 0 48 48" fill="none" xmlns="http://www.w3.org/2000/svg">
<path d="M20.19 32.3655C23.5763 32.3655 26.4522 31.1803 28.8175 28.81C31.1828 26.4396 32.3655 23.5615 32.3655 20.1755C32.3655 16.7891 31.1817 13.9101 28.814 11.5385C26.4463 9.16679 23.5713 7.98096 20.189 7.98096C16.8067 7.98096 13.9295 9.16596 11.5575 11.536C9.18583 13.9063 8 16.7846 8 20.171C8 23.557 9.18517 26.4358 11.5555 28.8075C13.9258 31.1795 16.804 32.3655 20.19 32.3655ZM18.131 22.1885L15.031 19.1195C14.7333 18.8218 14.3852 18.6698 13.9865 18.6635C13.5878 18.6571 13.2333 18.8091 12.923 19.1195C12.613 19.4295 12.4528 19.7806 12.4425 20.173C12.4322 20.5653 12.5822 20.9166 12.8925 21.227L16.8345 25.169C17.1935 25.5306 17.6198 25.7115 18.1135 25.7115C18.6072 25.7115 19.0347 25.5306 19.396 25.169L27.473 17.104C27.7703 16.8063 27.9223 16.4531 27.929 16.0445C27.9353 15.6355 27.7833 15.2758 27.473 14.9655C27.1627 14.6551 26.8063 14.5 26.404 14.5C26.0013 14.5 25.6448 14.6551 25.3345 14.9655L18.131 22.1885ZM20.1925 35.3655C15.9692 35.3655 12.3813 33.8891 9.429 30.9365C6.47633 27.9838 5 24.396 5 20.173C5 15.95 6.47633 12.3621 9.429 9.40946C12.3813 6.45712 15.9692 4.98096 20.1925 4.98096C24.4155 4.98096 28 6.45712 30.946 9.40946C33.8923 12.3621 35.3655 15.95 35.3655 20.173C35.3655 22.012 35.0642 23.7441 34.4615 25.3695C33.8588 26.9948 33.0178 28.4653 31.9385 29.781L41.9655 39.8075C42.2628 40.1015 42.4115 40.4506 42.4115 40.855C42.4115 41.2593 42.2615 41.6166 41.9615 41.927C41.6612 42.237 41.3047 42.392 40.892 42.392C40.4793 42.392 40.1178 42.237 39.8075 41.927L29.8 31.919C28.4847 33.0113 27.0143 33.8588 25.389 34.4615C23.7633 35.0641 22.0312 35.3655 20.1925 35.3655Z" fill="#F5F5F4"/>
</svg>
