<svg width="48" height="48" viewBox="0 0 48 48" fill="none" xmlns="http://www.w3.org/2000/svg">
<path d="M23.981 39.419C23.5527 39.419 23.1225 39.3422 22.6905 39.1885C22.2585 39.0345 21.8783 38.7935 21.55 38.4655L18.677 35.854C15.131 32.6207 11.965 29.4444 9.179 26.325C6.393 23.2057 5 19.864 5 16.3C5 13.4617 5.957 11.0854 7.871 9.17105C9.78533 7.25705 12.1617 6.30005 15 6.30005C16.6127 6.30005 18.2057 6.67188 19.779 7.41555C21.352 8.15922 22.759 9.36688 24 11.0385C25.241 9.36688 26.648 8.15922 28.221 7.41555C29.7943 6.67188 31.3873 6.30005 33 6.30005C35.8383 6.30005 38.2147 7.25705 40.129 9.17105C42.043 11.0854 43 13.4617 43 16.3C43 19.9027 41.5833 23.2815 38.75 26.4365C35.9167 29.5915 32.7577 32.7409 29.273 35.8845L26.4305 38.4655C26.1025 38.7935 25.7193 39.0345 25.281 39.1885C24.8423 39.3422 24.409 39.419 23.981 39.419ZM22.5615 14.077C21.4795 12.4284 20.3403 11.22 19.144 10.452C17.948 9.68405 16.5667 9.30005 15 9.30005C13 9.30005 11.3333 9.96672 10 11.3C8.66667 12.6334 8 14.3 8 16.3C8 17.905 8.51733 19.5832 9.552 21.3345C10.5867 23.0859 11.8853 24.8269 13.448 26.5575C15.0107 28.2885 16.7037 29.9795 18.527 31.6305C20.35 33.2819 22.0397 34.8165 23.596 36.2345C23.7113 36.3372 23.846 36.3885 24 36.3885C24.154 36.3885 24.2887 36.3372 24.404 36.2345C25.9603 34.8165 27.65 33.2819 29.473 31.6305C31.2963 29.9795 32.9893 28.2885 34.552 26.5575C36.1147 24.8269 37.4133 23.0859 38.448 21.3345C39.4827 19.5832 40 17.905 40 16.3C40 14.3 39.3333 12.6334 38 11.3C36.6667 9.96672 35 9.30005 33 9.30005C31.4333 9.30005 30.052 9.68405 28.856 10.452C27.6597 11.22 26.5205 12.4284 25.4385 14.077C25.2692 14.3334 25.0563 14.5257 24.8 14.654C24.5437 14.782 24.277 14.846 24 14.846C23.723 14.846 23.4563 14.782 23.2 14.654C22.9437 14.5257 22.7308 14.3334 22.5615 14.077Z" fill="#F5F5F4"/>
</svg>
