<svg width="48" height="48" viewBox="0 0 48 48" fill="none" xmlns="http://www.w3.org/2000/svg">
<path d="M29.816 39C25.6263 39 22.0775 37.546 19.1695 34.638C16.2618 31.7303 14.808 28.1815 14.808 23.9915C14.808 19.8332 16.2618 16.295 19.1695 13.377C22.0775 10.459 25.6263 9 29.816 9C33.9747 9 37.5128 10.459 40.4305 13.377C43.3485 16.295 44.8075 19.8332 44.8075 23.9915C44.8075 28.1815 43.3485 31.7303 40.4305 34.638C37.5128 37.546 33.9747 39 29.816 39ZM29.8075 36C33.1408 36 35.9742 34.8333 38.3075 32.5C40.6408 30.1667 41.8075 27.3333 41.8075 24C41.8075 20.6667 40.6408 17.8333 38.3075 15.5C35.9742 13.1667 33.1408 12 29.8075 12C26.4742 12 23.6408 13.1667 21.3075 15.5C18.9742 17.8333 17.8075 20.6667 17.8075 24C17.8075 27.3333 18.9742 30.1667 21.3075 32.5C23.6408 34.8333 26.4742 36 29.8075 36ZM31.3075 23.4115V17.8075C31.3075 17.3825 31.1637 17.0263 30.876 16.739C30.5887 16.4513 30.2323 16.3075 29.807 16.3075C29.3817 16.3075 29.0255 16.4513 28.7385 16.739C28.4512 17.0263 28.3075 17.3825 28.3075 17.8075V23.9155C28.3075 24.1508 28.3563 24.3788 28.454 24.5995C28.5513 24.8202 28.685 25.016 28.855 25.187L33.496 29.846C33.7937 30.1563 34.147 30.3115 34.556 30.3115C34.9647 30.3115 35.3242 30.1563 35.6345 29.846C35.9448 29.536 36.1 29.1797 36.1 28.777C36.1 28.3743 35.9448 28.0178 35.6345 27.7075L31.3075 23.4115ZM6.69251 17.5C6.26751 17.5 5.91117 17.3562 5.62351 17.0685C5.33617 16.7808 5.1925 16.4245 5.1925 15.9995C5.1925 15.5742 5.33617 15.218 5.62351 14.931C5.91117 14.6437 6.26751 14.5 6.69251 14.5H11.308C11.733 14.5 12.0892 14.6438 12.3765 14.9315C12.6642 15.2192 12.808 15.5755 12.808 16.0005C12.808 16.4258 12.6642 16.782 12.3765 17.069C12.0892 17.3563 11.733 17.5 11.308 17.5H6.69251ZM4.6925 25.5C4.2675 25.5 3.91117 25.3562 3.62351 25.0685C3.33617 24.7808 3.1925 24.4245 3.1925 23.9995C3.1925 23.5742 3.33617 23.218 3.62351 22.931C3.91117 22.6437 4.2675 22.5 4.6925 22.5H11.308C11.733 22.5 12.0892 22.6438 12.3765 22.9315C12.6642 23.2192 12.808 23.5755 12.808 24.0005C12.808 24.4258 12.6642 24.782 12.3765 25.069C12.0892 25.3563 11.733 25.5 11.308 25.5H4.6925ZM6.69251 33.5C6.26751 33.5 5.91117 33.3562 5.62351 33.0685C5.33617 32.7808 5.1925 32.4245 5.1925 31.9995C5.1925 31.5742 5.33617 31.218 5.62351 30.931C5.91117 30.6437 6.26751 30.5 6.69251 30.5H11.308C11.733 30.5 12.0892 30.6438 12.3765 30.9315C12.6642 31.2192 12.808 31.5755 12.808 32.0005C12.808 32.4258 12.6642 32.782 12.3765 33.069C12.0892 33.3563 11.733 33.5 11.308 33.5H6.69251Z" fill="#F5F5F4"/>
</svg>
