<svg width="48" height="48" viewBox="0 0 48 48" fill="none" xmlns="http://www.w3.org/2000/svg">
<path d="M27.7461 41.204C27.8104 41.2297 27.8681 41.2425 27.9191 41.2425C27.9704 41.2425 28.0282 41.2297 28.0926 41.204L39.8576 37.5615C39.7552 37.1078 39.5437 36.7598 39.2231 36.5175C38.9024 36.2752 38.5396 36.154 38.1346 36.154H28.3401C27.4674 36.154 26.7259 36.1207 26.1156 36.054C25.5052 35.9873 24.8782 35.8412 24.2346 35.6155L21.0961 34.5885C20.6927 34.4602 20.4029 34.2038 20.2266 33.8195C20.0499 33.4348 20.0257 33.0432 20.1541 32.6445C20.2821 32.2455 20.5301 31.9532 20.8981 31.7675C21.2661 31.5815 21.6526 31.5527 22.0576 31.681L24.6576 32.5925C25.2629 32.7848 25.9399 32.9213 26.6886 33.002C27.4372 33.0827 28.4076 33.1333 29.5996 33.154H30.1346C30.1346 32.659 30.0231 32.232 29.8001 31.873C29.5771 31.514 29.2834 31.2717 28.9191 31.146L17.3156 26.8845C17.2769 26.8718 17.2416 26.8623 17.2096 26.856C17.1776 26.8493 17.1424 26.846 17.1041 26.846H13.4041V37.154L27.7461 41.204ZM26.9656 44.1425L13.4041 40.254C13.1757 41.082 12.7116 41.7467 12.0116 42.248C11.3116 42.7493 10.5706 43 9.78855 43H7.01955C6.02522 43 5.17405 42.646 4.46605 41.938C3.75805 41.23 3.40405 40.3788 3.40405 39.3845V27.4615C3.40405 26.4675 3.75805 25.6165 4.46605 24.9085C5.17405 24.2005 6.02522 23.8465 7.01955 23.8465H17.0816C17.2912 23.8465 17.5037 23.8695 17.7191 23.9155C17.9347 23.9618 18.1347 24.0157 18.3191 24.077L29.9731 28.3695C30.8807 28.7052 31.6346 29.2993 32.2346 30.152C32.8346 31.0047 33.1346 32.0053 33.1346 33.154H38.1346C39.5706 33.154 40.7404 33.6175 41.6441 34.5445C42.5481 35.4712 43.0001 36.6743 43.0001 38.154C43.0001 38.7207 42.8501 39.177 42.5501 39.523C42.2501 39.8693 41.7962 40.1437 41.1886 40.346L29.0541 44.1115C28.7257 44.2192 28.3807 44.2762 28.0191 44.2825C27.6577 44.2892 27.3066 44.2425 26.9656 44.1425ZM6.40405 39.3845C6.40405 39.5642 6.46172 39.7117 6.57705 39.827C6.69239 39.9423 6.83989 40 7.01955 40H9.78855C9.96789 40 10.1154 39.952 10.2311 39.856C10.3464 39.7597 10.4041 39.6025 10.4041 39.3845V26.846H7.01955C6.83989 26.846 6.69239 26.9038 6.57705 27.0195C6.46172 27.1348 6.40405 27.2822 6.40405 27.4615V39.3845ZM31.6921 23.9575C31.2434 23.9575 30.8024 23.8755 30.3691 23.7115C29.9357 23.5475 29.5397 23.3013 29.1811 22.973L23.7771 17.727C22.8207 16.804 22.0162 15.7765 21.3636 14.6445C20.7109 13.5125 20.3846 12.2797 20.3846 10.946C20.3846 9.29433 20.9627 7.8905 22.1191 6.7345C23.2751 5.57817 24.6789 5 26.3306 5C27.4102 5 28.4071 5.26033 29.3211 5.781C30.2354 6.30133 31.0259 6.96417 31.6926 7.7695C32.3592 6.96417 33.1496 6.30133 34.0636 5.781C34.9776 5.26033 35.9744 5 37.0541 5C38.7057 5 40.1096 5.57817 41.2656 6.7345C42.4219 7.8905 43.0001 9.29433 43.0001 10.946C43.0001 12.2797 42.6789 13.5125 42.0366 14.6445C41.3942 15.7765 40.5949 16.804 39.6386 17.727L34.2041 22.973C33.8451 23.3013 33.4487 23.5475 33.0151 23.7115C32.5817 23.8755 32.1407 23.9575 31.6921 23.9575ZM32.1156 20.804L37.4116 15.6655C38.0832 15.0065 38.6826 14.2898 39.2096 13.5155C39.7366 12.7412 40.0001 11.8847 40.0001 10.946C40.0001 10.123 39.7147 9.42633 39.1441 8.856C38.5737 8.28533 37.8771 8 37.0541 8C36.4207 8 35.8412 8.16533 35.3156 8.496C34.7899 8.827 34.3257 9.24633 33.9231 9.754L33.0306 10.831C32.6862 11.2463 32.2412 11.454 31.6956 11.454C31.1499 11.454 30.7027 11.2463 30.3541 10.831L29.4616 9.754C29.0589 9.24633 28.5947 8.827 28.0691 8.496C27.5437 8.16533 26.9642 8 26.3306 8C25.5076 8 24.8109 8.28533 24.2406 8.856C23.6699 9.42633 23.3846 10.123 23.3846 10.946C23.3846 11.8847 23.6481 12.7412 24.1751 13.5155C24.7021 14.2898 25.3014 15.0065 25.9731 15.6655L31.2691 20.804C31.3847 20.9193 31.5259 20.977 31.6926 20.977C31.8592 20.977 32.0002 20.9193 32.1156 20.804Z" fill="#F5F5F4"/>
</svg>
