<svg width="48" height="48" viewBox="0 0 48 48" fill="none" xmlns="http://www.w3.org/2000/svg">
<path d="M30.5 38.4615V35.5H26.1155C25.1182 35.5 24.2662 35.1468 23.5595 34.4405C22.8532 33.7338 22.5 32.8818 22.5 31.8845V15.5H17.5V18.4615C17.5 19.3052 17.2045 20.0225 16.6135 20.6135C16.0225 21.2045 15.3052 21.5 14.4615 21.5H7.5385C6.69483 21.5 5.9775 21.2045 5.3865 20.6135C4.7955 20.0225 4.5 19.3052 4.5 18.4615V9.5385C4.5 8.69483 4.7955 7.9775 5.3865 7.3865C5.9775 6.7955 6.69483 6.5 7.5385 6.5H14.4615C15.3052 6.5 16.0225 6.7955 16.6135 7.3865C17.2045 7.9775 17.5 8.69483 17.5 9.5385V12.5H30.5V9.5385C30.5 8.69483 30.7955 7.9775 31.3865 7.3865C31.9775 6.7955 32.6948 6.5 33.5385 6.5H40.4615C41.3052 6.5 42.0225 6.7955 42.6135 7.3865C43.2045 7.9775 43.5 8.69483 43.5 9.5385V18.4615C43.5 19.3052 43.2045 20.0225 42.6135 20.6135C42.0225 21.2045 41.3052 21.5 40.4615 21.5H33.5385C32.6948 21.5 31.9775 21.2045 31.3865 20.6135C30.7955 20.0225 30.5 19.3052 30.5 18.4615V15.5H25.5V31.8845C25.5 32.0642 25.5577 32.2117 25.673 32.327C25.7883 32.4423 25.9358 32.5 26.1155 32.5H30.5V29.5385C30.5 28.6948 30.7955 27.9775 31.3865 27.3865C31.9775 26.7955 32.6948 26.5 33.5385 26.5H40.4615C41.3052 26.5 42.0225 26.7955 42.6135 27.3865C43.2045 27.9775 43.5 28.6948 43.5 29.5385V38.4615C43.5 39.3052 43.2045 40.0225 42.6135 40.6135C42.0225 41.2045 41.3052 41.5 40.4615 41.5H33.5385C32.6948 41.5 31.9775 41.2045 31.3865 40.6135C30.7955 40.0225 30.5 39.3052 30.5 38.4615ZM33.5 18.5H40.5V9.5H33.5V18.5ZM33.5 38.5H40.5V29.5H33.5V38.5ZM7.5 18.5H14.5V9.5H7.5V18.5Z" fill="#F5F5F4"/>
</svg>
