<svg width="48" height="48" viewBox="0 0 48 48" fill="none" xmlns="http://www.w3.org/2000/svg">
<path d="M8.3075 12L24 22L39.6925 12H8.3075ZM8.6155 39C7.62117 39 6.77 38.646 6.062 37.938C5.354 37.23 5 36.3788 5 35.3845V12.6155C5 11.6212 5.354 10.77 6.062 10.062C6.77 9.354 7.62117 9 8.6155 9H39.3845C40.3788 9 41.23 9.354 41.938 10.062C42.646 10.77 43 11.6212 43 12.6155V23.1925C43 23.6175 42.8562 23.9737 42.5685 24.261C42.2808 24.5487 41.9245 24.6925 41.4995 24.6925C41.0742 24.6925 40.718 24.5487 40.431 24.261C40.1437 23.9737 40 23.6175 40 23.1925V14.8845L24.973 24.504C24.8603 24.5833 24.536 24.6768 24 24.7845C23.8333 24.7845 23.668 24.7627 23.504 24.719C23.3397 24.6757 23.1807 24.604 23.027 24.504L8 14.8845V35.3845C8 35.5642 8.05767 35.7117 8.173 35.827C8.28833 35.9423 8.43583 36 8.6155 36H19.25C19.675 36 20.0312 36.1438 20.3185 36.4315C20.6062 36.7192 20.75 37.0755 20.75 37.5005C20.75 37.9258 20.6062 38.282 20.3185 38.569C20.0312 38.8563 19.675 39 19.25 39H8.6155ZM31.4385 39.054L41.723 28.7695C42 28.4925 42.3482 28.3508 42.7675 28.3445C43.1865 28.3378 43.5408 28.4795 43.8305 28.7695C44.1205 29.0592 44.2655 29.4103 44.2655 29.823C44.2655 30.236 44.1205 30.5873 43.8305 30.877L32.704 42.004C32.3423 42.3653 31.9205 42.546 31.4385 42.546C30.9565 42.546 30.5347 42.3653 30.173 42.004L24.6845 36.5155C24.4075 36.2385 24.2658 35.8903 24.2595 35.471C24.2532 35.052 24.3948 34.6975 24.6845 34.4075C24.9742 34.1178 25.3255 33.973 25.7385 33.973C26.1512 33.973 26.5023 34.1178 26.792 34.4075L31.4385 39.054Z" fill="#F5F5F4"/>
</svg>
