<svg width="48" height="48" viewBox="0 0 48 48" fill="none" xmlns="http://www.w3.org/2000/svg">
<path d="M12.077 35L8.073 39.0035C7.504 39.5728 6.8495 39.7018 6.1095 39.3905C5.36983 39.0788 5 38.5178 5 37.7075V8.6155C5 7.60517 5.35 6.75 6.05 6.05C6.75 5.35 7.60517 5 8.6155 5H39.3845C40.3948 5 41.25 5.35 41.95 6.05C42.65 6.75 43 7.60517 43 8.6155V31.3845C43 32.3948 42.65 33.25 41.95 33.95C41.25 34.65 40.3948 35 39.3845 35H12.077ZM10.8 32H39.3845C39.5385 32 39.6795 31.9358 39.8075 31.8075C39.9358 31.6795 40 31.5385 40 31.3845V8.6155C40 8.4615 39.9358 8.3205 39.8075 8.1925C39.6795 8.06417 39.5385 8 39.3845 8H8.6155C8.4615 8 8.3205 8.06417 8.1925 8.1925C8.06417 8.3205 8 8.4615 8 8.6155V34.7695L10.8 32ZM14 27.5H26C26.4257 27.5 26.782 27.3563 27.069 27.069C27.3563 26.782 27.5 26.4257 27.5 26C27.5 25.5743 27.3563 25.218 27.069 24.931C26.782 24.6437 26.4257 24.5 26 24.5H14C13.5743 24.5 13.218 24.6437 12.931 24.931C12.6437 25.218 12.5 25.5743 12.5 26C12.5 26.4257 12.6437 26.782 12.931 27.069C13.218 27.3563 13.5743 27.5 14 27.5ZM14 21.5H34C34.4257 21.5 34.782 21.3563 35.069 21.069C35.3563 20.782 35.5 20.4257 35.5 20C35.5 19.5743 35.3563 19.218 35.069 18.931C34.782 18.6437 34.4257 18.5 34 18.5H14C13.5743 18.5 13.218 18.6437 12.931 18.931C12.6437 19.218 12.5 19.5743 12.5 20C12.5 20.4257 12.6437 20.782 12.931 21.069C13.218 21.3563 13.5743 21.5 14 21.5ZM14 15.5H34C34.4257 15.5 34.782 15.3563 35.069 15.069C35.3563 14.782 35.5 14.4257 35.5 14C35.5 13.5743 35.3563 13.218 35.069 12.931C34.782 12.6437 34.4257 12.5 34 12.5H14C13.5743 12.5 13.218 12.6437 12.931 12.931C12.6437 13.218 12.5 13.5743 12.5 14C12.5 14.4257 12.6437 14.782 12.931 15.069C13.218 15.3563 13.5743 15.5 14 15.5Z" fill="#F5F5F4"/>
</svg>
