<svg width="48" height="48" viewBox="0 0 48 48" fill="none" xmlns="http://www.w3.org/2000/svg">
<path d="M24.0085 34.3845C25.7055 34.3845 27.3072 34.0012 28.8135 33.2345C30.3198 32.4678 31.5372 31.3768 32.4655 29.9615C32.7552 29.5232 32.7892 29.0867 32.5675 28.652C32.3455 28.2173 31.9922 28 31.5075 28C31.3095 28 31.1298 28.0455 30.9685 28.1365C30.8075 28.2275 30.6732 28.3577 30.5655 28.527C29.7988 29.6117 28.8423 30.4617 27.696 31.077C26.55 31.6923 25.318 32 24 32C22.682 32 21.45 31.6923 20.304 31.077C19.1577 30.4617 18.2012 29.6117 17.4345 28.527C17.3065 28.3577 17.1618 28.2275 17.0005 28.1365C16.8395 28.0455 16.6598 28 16.4615 28C15.9768 28 15.6237 28.209 15.402 28.627C15.1803 29.045 15.2143 29.4693 15.504 29.9C16.432 31.336 17.6493 32.4423 19.156 33.219C20.6623 33.996 22.2798 34.3845 24.0085 34.3845ZM30.812 21.6155C31.54 21.6155 32.1572 21.3607 32.6635 20.851C33.1698 20.3417 33.423 19.7232 33.423 18.9955C33.423 18.2678 33.1683 17.6508 32.659 17.1445C32.1497 16.6378 31.531 16.3845 30.803 16.3845C30.0753 16.3845 29.4583 16.6393 28.952 17.149C28.4457 17.6583 28.1925 18.2768 28.1925 19.0045C28.1925 19.7322 28.4472 20.3492 28.9565 20.8555C29.4658 21.3622 30.0843 21.6155 30.812 21.6155ZM17.197 21.6155C17.9247 21.6155 18.5417 21.3607 19.048 20.851C19.5543 20.3417 19.8075 19.7232 19.8075 18.9955C19.8075 18.2678 19.5528 17.6508 19.0435 17.1445C18.5342 16.6378 17.9157 16.3845 17.188 16.3845C16.46 16.3845 15.8428 16.6393 15.3365 17.149C14.8302 17.6583 14.577 18.2768 14.577 19.0045C14.577 19.7322 14.8317 20.3492 15.341 20.8555C15.8503 21.3622 16.469 21.6155 17.197 21.6155ZM24.0035 43C21.3755 43 18.9053 42.5013 16.593 41.504C14.2807 40.5067 12.2693 39.1532 10.559 37.4435C8.84867 35.7338 7.4945 33.7233 6.4965 31.412C5.49883 29.1007 5 26.6312 5 24.0035C5 21.3755 5.49867 18.9053 6.496 16.593C7.49333 14.2807 8.84683 12.2693 10.5565 10.559C12.2662 8.84867 14.2767 7.4945 16.588 6.4965C18.8993 5.49883 21.3688 5 23.9965 5C26.6245 5 29.0947 5.49867 31.407 6.496C33.7193 7.49333 35.7307 8.84683 37.441 10.5565C39.1513 12.2662 40.5055 14.2767 41.5035 16.588C42.5012 18.8993 43 21.3688 43 23.9965C43 26.6245 42.5013 29.0947 41.504 31.407C40.5067 33.7193 39.1532 35.7307 37.4435 37.441C35.7338 39.1513 33.7233 40.5055 31.412 41.5035C29.1007 42.5012 26.6312 43 24.0035 43ZM24 40C28.4667 40 32.25 38.45 35.35 35.35C38.45 32.25 40 28.4667 40 24C40 19.5333 38.45 15.75 35.35 12.65C32.25 9.55 28.4667 8 24 8C19.5333 8 15.75 9.55 12.65 12.65C9.55 15.75 8 19.5333 8 24C8 28.4667 9.55 32.25 12.65 35.35C15.75 38.45 19.5333 40 24 40Z" fill="#F5F5F4"/>
</svg>
