<svg width="48" height="48" viewBox="0 0 48 48" fill="none" xmlns="http://www.w3.org/2000/svg">
<path d="M24 12.558C25.377 10.786 27.0058 9.41667 28.8865 8.45C30.7672 7.48333 32.7383 7 34.8 7C38.189 7 41.0695 8.18617 43.4415 10.5585C45.8138 12.9305 47 15.811 47 19.2C47 20.0463 46.907 20.8817 46.721 21.706C46.535 22.5303 46.2818 23.3322 45.9615 24.1115C45.8205 24.5372 45.5678 24.8653 45.2035 25.096C44.8395 25.327 44.4468 25.377 44.0255 25.246C43.6288 25.141 43.3273 24.9128 43.121 24.5615C42.9147 24.2102 42.882 23.8385 43.023 23.4465C43.323 22.7745 43.5608 22.0847 43.7365 21.377C43.9122 20.6693 44 19.9437 44 19.2C44 16.6333 43.1083 14.4583 41.325 12.675C39.5417 10.8917 37.3667 10 34.8 10C32.9277 10 31.2257 10.5275 29.694 11.5825C28.162 12.6378 26.7832 13.8847 25.5575 15.323C25.1422 15.8257 24.623 16.077 24 16.077C23.377 16.077 22.8578 15.8257 22.4425 15.323C21.2372 13.8847 19.8622 12.6378 18.3175 11.5825C16.7728 10.5275 15.067 10 13.2 10C10.6333 10 8.45833 10.8917 6.675 12.675C4.89167 14.4583 4 16.6333 4 19.2C4 19.9403 4.08467 20.6683 4.254 21.384C4.423 22.1 4.6575 22.7938 4.9575 23.4655C5.0655 23.8372 5.02267 24.1935 4.829 24.5345C4.63533 24.8755 4.35167 25.1013 3.978 25.212C3.55433 25.3503 3.16367 25.3112 2.806 25.0945C2.44833 24.8778 2.1925 24.5567 2.0385 24.131C1.71817 23.3513 1.465 22.5473 1.279 21.719C1.093 20.8907 1 20.051 1 19.2C1 15.811 2.18617 12.9305 4.5585 10.5585C6.9305 8.18617 9.811 7 13.2 7C15.2617 7 17.2328 7.48333 19.1135 8.45C20.9942 9.41667 22.623 10.786 24 12.558ZM2.731 43.0385C2.24067 43.0385 1.8295 42.8727 1.4975 42.541C1.16583 42.209 1 41.7978 1 41.3075V40.6C1 39.6437 1.361 38.8045 2.083 38.0825C2.80467 37.3608 3.78733 36.823 5.031 36.469C5.859 36.2153 6.607 36.075 7.275 36.048C7.943 36.021 8.66417 36.0408 9.4385 36.1075C9.74483 36.1375 9.967 36.279 10.105 36.532C10.2427 36.785 10.2577 37.0487 10.15 37.323C9.968 37.7793 9.83333 38.2473 9.746 38.727C9.659 39.2063 9.6155 39.7012 9.6155 40.2115V41.2305C9.6155 41.7428 9.44217 42.1722 9.0955 42.5185C8.74917 42.8652 8.32 43.0385 7.808 43.0385H2.731ZM13 41.2305V40.2885C13 38.3782 14.0165 36.8462 16.0495 35.6925C18.0825 34.5385 20.7345 33.9615 24.0055 33.9615C27.3068 33.9615 29.9647 34.5385 31.979 35.6925C33.993 36.8462 35 38.3782 35 40.2885V41.2305C35 41.7428 34.8267 42.1722 34.48 42.5185C34.1337 42.8652 33.7043 43.0385 33.192 43.0385H14.8155C14.2948 43.0385 13.8622 42.8652 13.5175 42.5185C13.1725 42.1722 13 41.7428 13 41.2305ZM40.192 43.0385C39.68 43.0385 39.2508 42.8652 38.9045 42.5185C38.5578 42.1722 38.3845 41.7428 38.3845 41.2305V40.2115C38.3845 39.7012 38.341 39.2063 38.254 38.727C38.1667 38.2473 38.032 37.7793 37.85 37.323C37.7423 37.0487 37.7573 36.785 37.895 36.532C38.033 36.279 38.2552 36.1375 38.5615 36.1075C39.3358 36.0408 40.057 36.021 40.725 36.048C41.393 36.075 42.141 36.2153 42.969 36.469C44.2127 36.823 45.1953 37.3608 45.917 38.0825C46.639 38.8045 47 39.6437 47 40.6V41.3075C47 41.7978 46.8342 42.209 46.5025 42.541C46.1705 42.8727 45.7593 43.0385 45.269 43.0385H40.192ZM23.9975 36.9615C21.9195 36.9615 20.1338 37.2372 18.6405 37.7885C17.1468 38.3398 16.318 39.0193 16.154 39.827V40.0385H31.877V39.827C31.6923 39.0193 30.8615 38.3398 29.3845 37.7885C27.9078 37.2372 26.1122 36.9615 23.9975 36.9615ZM8.5195 34.096C7.57817 34.096 6.77233 33.7608 6.102 33.0905C5.43133 32.4202 5.096 31.6143 5.096 30.673C5.096 29.7193 5.43133 28.9137 6.102 28.256C6.77233 27.5983 7.57817 27.2695 8.5195 27.2695C9.47317 27.2695 10.282 27.5983 10.946 28.256C11.6103 28.9137 11.9425 29.7193 11.9425 30.673C11.9425 31.6143 11.6103 32.4202 10.946 33.0905C10.282 33.7608 9.47317 34.096 8.5195 34.096ZM39.5 34.096C38.5667 34.096 37.7628 33.7608 37.0885 33.0905C36.4142 32.4202 36.077 31.6143 36.077 30.673C36.077 29.7193 36.4142 28.9137 37.0885 28.256C37.7628 27.5983 38.5678 27.2695 39.5035 27.2695C40.4678 27.2695 41.2788 27.5983 41.9365 28.256C42.5942 28.9137 42.923 29.7193 42.923 30.673C42.923 31.6143 42.595 32.4202 41.939 33.0905C41.283 33.7608 40.47 34.096 39.5 34.096ZM24.007 32.4615C22.5663 32.4615 21.3397 31.9567 20.327 30.947C19.3143 29.9377 18.808 28.7118 18.808 27.2695C18.808 25.7982 19.3127 24.565 20.322 23.57C21.3317 22.5747 22.5577 22.077 24 22.077C25.471 22.077 26.7042 22.574 27.6995 23.568C28.6945 24.5617 29.192 25.7932 29.192 27.2625C29.192 28.7028 28.6952 29.9295 27.7015 30.9425C26.7075 31.9552 25.476 32.4615 24.007 32.4615ZM24 25.077C23.395 25.077 22.8783 25.2872 22.45 25.7075C22.0217 26.1275 21.8075 26.6482 21.8075 27.2695C21.8075 27.8745 22.0217 28.3912 22.45 28.8195C22.8783 29.2475 23.3982 29.4615 24.0095 29.4615C24.6212 29.4615 25.1378 29.2475 25.5595 28.8195C25.9815 28.3912 26.1925 27.8712 26.1925 27.2595C26.1925 26.6482 25.9823 26.1315 25.562 25.7095C25.1417 25.2878 24.621 25.077 24 25.077Z" fill="#F5F5F4"/>
</svg>
